# xmcd
#
# Track frame offsets:
#	182
#	20010
#	39072
#	63292
#	87270
#	105992
#	125417
#	147347
#	177315
#	213137
#	249297
#	273050
#
# Disc length: 4064 seconds
# Revision: 0
# Processed by: cddbd v1.5.2PL0 Copyright (c) Steve Scherf et al.
# Submitted via: dBpowerAMP V12.0
#
DISCID=940fde0c
DTITLE=Various Artist - Mouse House Remixes
DYEAR=1997
DGENRE=House
TTITLE0=Donna Summer - Someday [Cox Euro Disney Radio Mix]
TTITLE1=Donna Summer - Someday [Cox and Irene's Swingin' In Summer Radio Mix]
TTITLE2=Betty Lou Gerson, Bill Lee, and Lisa Davis - Cruella De Vil [King and Little Steven's Cruella's Never Stop Stompin' Diva Mix]
TTITLE3=Carmen Carter - Beauty And The Beast [King and Little Steven's Vibe 'N Bass Mix]
TTITLE4=Robin S. - Colors Of The Wind [Rob Chiarelli Radio Mix]
TTITLE5=Donna Summer - Someday [King and Little Steven Gypsy Classic Radio Mix]
TTITLE6=Robin S., Tonya Kelly, Jillien, Donna Summer, and Carmen Carter - Mouse House Megamix [Edit]
TTITLE7=Donna Summer - Someday [Cox Euro Disney Club Mix]
TTITLE8=Donna Summer - Someday [Cox and Irene's Swingin' In The Summer Club Mix]
TTITLE9=Betty Lou Gerson, Bill Lee, and Lisa Davis - Cruella De Vil [Tony B! and DJ Orlando International Hooligan's Mix]
TTITLE10=Tonya Kelly - So This Is Love [Vission and Lorimer's Take Cinderella To The Ball Mix]
TTITLE11=Carmen Carter - Beauty And The Beast [King and Little Steven's Deep Stompin' Mix]
EXTD=
EXTT0=
EXTT1=
EXTT2=
EXTT3=
EXTT4=
EXTT5=
EXTT6=
EXTT7=
EXTT8=
EXTT9=
EXTT10=
EXTT11=
PLAYORDER=
